REM DIRINDEX 1\2\5,1\2\6,1\2\7,1\2\8,1\3\9,1\3\10,1\3\11,1\4\12,1\4\13,1\4\14,1\4\15,1\4\16
REM DIRNAME cjc034,folder01,folder02,folder03,folder04,folder05,folder06,folder07,folder08,folder09,folder10,folder11,folder12,folder13,folder14,folder15
TITLE ""
FILE "1200_sec02_0276_0283.mp3" MP3
  TRACK 01 AUDIO
    TITLE "0:"
    INDEX 01 00:00:00
  TRACK 02 AUDIO
    TITLE "12:cjc034_04741"
    INDEX 01 00:00:17
  TRACK 03 AUDIO
    TITLE "0:"
    INDEX 01 00:01:17
  TRACK 04 AUDIO
    TITLE "13:cjc034_04742"
    INDEX 01 00:01:52
  TRACK 05 AUDIO
    TITLE "0:"
    INDEX 01 00:04:21
  TRACK 06 AUDIO
    TITLE "14:cjc034_04743"
    INDEX 01 00:04:54
  TRACK 07 AUDIO
    TITLE "0:"
    INDEX 01 00:05:54
  TRACK 08 AUDIO
    TITLE "15:cjc034_04744"
    INDEX 01 00:06:14
  TRACK 09 AUDIO
    TITLE "0:"
    INDEX 01 00:11:09
  TRACK 10 AUDIO
    TITLE "12:cjc034_04745"
    INDEX 01 00:12:40
  TRACK 11 AUDIO
    TITLE "0:"
    INDEX 01 00:13:67
  TRACK 12 AUDIO
    TITLE "13:cjc034_04746"
    INDEX 01 00:14:21
  TRACK 13 AUDIO
    TITLE "0:"
    INDEX 01 00:16:51
  TRACK 14 AUDIO
    TITLE "14:cjc034_04747"
    INDEX 01 00:17:10
  TRACK 15 AUDIO
    TITLE "0:"
    INDEX 01 00:18:33
  TRACK 16 AUDIO
    TITLE "15:cjc034_04748"
    INDEX 01 00:18:66
  TRACK 17 AUDIO
    TITLE "0:"
    INDEX 01 00:22:56
  TRACK 18 AUDIO
    TITLE "12:cjc034_04749"
    INDEX 01 00:24:18
  TRACK 19 AUDIO
    TITLE "0:"
    INDEX 01 00:25:39
  TRACK 20 AUDIO
    TITLE "13:cjc034_04750"
    INDEX 01 00:25:72
  TRACK 21 AUDIO
    TITLE "0:"
    INDEX 01 00:28:31
  TRACK 22 AUDIO
    TITLE "14:cjc034_04751"
    INDEX 01 00:28:66
  TRACK 23 AUDIO
    TITLE "0:"
    INDEX 01 00:30:14
  TRACK 24 AUDIO
    TITLE "15:cjc034_04752"
    INDEX 01 00:30:46
  TRACK 25 AUDIO
    TITLE "0:"
    INDEX 01 00:34:65
  TRACK 26 AUDIO
    TITLE "12:cjc034_04753"
    INDEX 01 00:36:21
  TRACK 27 AUDIO
    TITLE "0:"
    INDEX 01 00:37:38
  TRACK 28 AUDIO
    TITLE "13:cjc034_04754"
    INDEX 01 00:38:00
  TRACK 29 AUDIO
    TITLE "0:"
    INDEX 01 00:41:30
  TRACK 30 AUDIO
    TITLE "14:cjc034_04755"
    INDEX 01 00:41:63
  TRACK 31 AUDIO
    TITLE "0:"
    INDEX 01 00:43:07
  TRACK 32 AUDIO
    TITLE "15:cjc034_04756"
    INDEX 01 00:43:42
  TRACK 33 AUDIO
    TITLE "0:"
    INDEX 01 00:48:44
  TRACK 34 AUDIO
    TITLE "12:cjc034_04757"
    INDEX 01 00:50:03
  TRACK 35 AUDIO
    TITLE "0:"
    INDEX 01 00:51:07
  TRACK 36 AUDIO
    TITLE "13:cjc034_04758"
    INDEX 01 00:51:42
  TRACK 37 AUDIO
    TITLE "0:"
    INDEX 01 00:54:03
  TRACK 38 AUDIO
    TITLE "14:cjc034_04759"
    INDEX 01 00:54:34
  TRACK 39 AUDIO
    TITLE "0:"
    INDEX 01 00:55:40
  TRACK 40 AUDIO
    TITLE "15:cjc034_04760"
    INDEX 01 00:55:73
  TRACK 41 AUDIO
    TITLE "0:"
    INDEX 01 00:59:57
  TRACK 42 AUDIO
    TITLE "12:cjc034_04761"
    INDEX 01 01:01:15
  TRACK 43 AUDIO
    TITLE "0:"
    INDEX 01 01:02:26
  TRACK 44 AUDIO
    TITLE "13:cjc034_04762"
    INDEX 01 01:02:55
  TRACK 45 AUDIO
    TITLE "0:"
    INDEX 01 01:08:07
  TRACK 46 AUDIO
    TITLE "14:cjc034_04763"
    INDEX 01 01:08:38
  TRACK 47 AUDIO
    TITLE "0:"
    INDEX 01 01:09:48
  TRACK 48 AUDIO
    TITLE "15:cjc034_04764"
    INDEX 01 01:10:08
  TRACK 49 AUDIO
    TITLE "0:"
    INDEX 01 01:14:72
  TRACK 50 AUDIO
    TITLE "12:cjc034_04765"
    INDEX 01 01:16:28
  TRACK 51 AUDIO
    TITLE "0:"
    INDEX 01 01:17:28
  TRACK 52 AUDIO
    TITLE "13:cjc034_04766"
    INDEX 01 01:17:63
  TRACK 53 AUDIO
    TITLE "0:"
    INDEX 01 01:20:24
  TRACK 54 AUDIO
    TITLE "14:cjc034_04767"
    INDEX 01 01:20:61
  TRACK 55 AUDIO
    TITLE "0:"
    INDEX 01 01:21:61
  TRACK 56 AUDIO
    TITLE "15:cjc034_04768"
    INDEX 01 01:22:21
  TRACK 57 AUDIO
    TITLE "0:"
    INDEX 01 01:27:10
  TRACK 58 AUDIO
    TITLE "12:cjc034_04769"
    INDEX 01 01:28:43
  TRACK 59 AUDIO
    TITLE "0:"
    INDEX 01 01:29:52
  TRACK 60 AUDIO
    TITLE "13:cjc034_04770"
    INDEX 01 01:30:09
  TRACK 61 AUDIO
    TITLE "0:"
    INDEX 01 01:32:19
  TRACK 62 AUDIO
    TITLE "14:cjc034_04771"
    INDEX 01 01:32:53
  TRACK 63 AUDIO
    TITLE "0:"
    INDEX 01 01:33:62
  TRACK 64 AUDIO
    TITLE "15:cjc034_04772"
    INDEX 01 01:34:16
  TRACK 65 AUDIO
    TITLE "0:"
    INDEX 01 01:37:50
